<?xml version="1.0" encoding="utf-8"?>
<svg xmlns="http://www.w3.org/2000/svg" xmlns:xlink="http://www.w3.org/1999/xlink" style="margin: auto; background: none; display: block; shape-rendering: auto;" width="337px" height="337px" viewBox="0 0 100 100" preserveAspectRatio="xMidYMid">
<g transform="rotate(0 50 50)">
  <rect x="47" y="24" rx="1.56" ry="1.56" width="6" height="12" fill="#93dbe9">
    <animate attributeName="opacity" values="1;0" keyTimes="0;1" dur="0.4854368932038836s" begin="-0.4507628294036062s" repeatCount="indefinite"></animate>
  </rect>
</g><g transform="rotate(25.714285714285715 50 50)">
  <rect x="47" y="24" rx="1.56" ry="1.56" width="6" height="12" fill="#689cc5">
    <animate attributeName="opacity" values="1;0" keyTimes="0;1" dur="0.4854368932038836s" begin="-0.41608876560332875s" repeatCount="indefinite"></animate>
  </rect>
</g><g transform="rotate(51.42857142857143 50 50)">
  <rect x="47" y="24" rx="1.56" ry="1.56" width="6" height="12" fill="#5e6fa3">
    <animate attributeName="opacity" values="1;0" keyTimes="0;1" dur="0.4854368932038836s" begin="-0.38141470180305137s" repeatCount="indefinite"></animate>
  </rect>
</g><g transform="rotate(77.14285714285714 50 50)">
  <rect x="47" y="24" rx="1.56" ry="1.56" width="6" height="12" fill="#3b4368">
    <animate attributeName="opacity" values="1;0" keyTimes="0;1" dur="0.4854368932038836s" begin="-0.346740638002774s" repeatCount="indefinite"></animate>
  </rect>
</g><g transform="rotate(102.85714285714286 50 50)">
  <rect x="47" y="24" rx="1.56" ry="1.56" width="6" height="12" fill="#191d3a">
    <animate attributeName="opacity" values="1;0" keyTimes="0;1" dur="0.4854368932038836s" begin="-0.31206657420249656s" repeatCount="indefinite"></animate>
  </rect>
</g><g transform="rotate(128.57142857142858 50 50)">
  <rect x="47" y="24" rx="1.56" ry="1.56" width="6" height="12" fill="#d9dbee">
    <animate attributeName="opacity" values="1;0" keyTimes="0;1" dur="0.4854368932038836s" begin="-0.2773925104022192s" repeatCount="indefinite"></animate>
  </rect>
</g><g transform="rotate(154.28571428571428 50 50)">
  <rect x="47" y="24" rx="1.56" ry="1.56" width="6" height="12" fill="#b3b7e2">
    <animate attributeName="opacity" values="1;0" keyTimes="0;1" dur="0.4854368932038836s" begin="-0.24271844660194178s" repeatCount="indefinite"></animate>
  </rect>
</g><g transform="rotate(180 50 50)">
  <rect x="47" y="24" rx="1.56" ry="1.56" width="6" height="12" fill="#93dbe9">
    <animate attributeName="opacity" values="1;0" keyTimes="0;1" dur="0.4854368932038836s" begin="-0.20804438280166437s" repeatCount="indefinite"></animate>
  </rect>
</g><g transform="rotate(205.71428571428572 50 50)">
  <rect x="47" y="24" rx="1.56" ry="1.56" width="6" height="12" fill="#689cc5">
    <animate attributeName="opacity" values="1;0" keyTimes="0;1" dur="0.4854368932038836s" begin="-0.173370319001387s" repeatCount="indefinite"></animate>
  </rect>
</g><g transform="rotate(231.42857142857142 50 50)">
  <rect x="47" y="24" rx="1.56" ry="1.56" width="6" height="12" fill="#5e6fa3">
    <animate attributeName="opacity" values="1;0" keyTimes="0;1" dur="0.4854368932038836s" begin="-0.1386962552011096s" repeatCount="indefinite"></animate>
  </rect>
</g><g transform="rotate(257.14285714285717 50 50)">
  <rect x="47" y="24" rx="1.56" ry="1.56" width="6" height="12" fill="#3b4368">
    <animate attributeName="opacity" values="1;0" keyTimes="0;1" dur="0.4854368932038836s" begin="-0.10402219140083219s" repeatCount="indefinite"></animate>
  </rect>
</g><g transform="rotate(282.85714285714283 50 50)">
  <rect x="47" y="24" rx="1.56" ry="1.56" width="6" height="12" fill="#191d3a">
    <animate attributeName="opacity" values="1;0" keyTimes="0;1" dur="0.4854368932038836s" begin="-0.0693481276005548s" repeatCount="indefinite"></animate>
  </rect>
</g><g transform="rotate(308.57142857142856 50 50)">
  <rect x="47" y="24" rx="1.56" ry="1.56" width="6" height="12" fill="#d9dbee">
    <animate attributeName="opacity" values="1;0" keyTimes="0;1" dur="0.4854368932038836s" begin="-0.0346740638002774s" repeatCount="indefinite"></animate>
  </rect>
</g><g transform="rotate(334.2857142857143 50 50)">
  <rect x="47" y="24" rx="1.56" ry="1.56" width="6" height="12" fill="#b3b7e2">
    <animate attributeName="opacity" values="1;0" keyTimes="0;1" dur="0.4854368932038836s" begin="0s" repeatCount="indefinite"></animate>
  </rect>
</g>
<!-- [ldio] generated by https://loading.io/ --></svg>